# xmcd
#
# Track frame offsets:
#	150
#	15828
#	30967
#	48465
#	61697
#	74664
#	88274
#	101883
#	117426
#	130672
#	144662
#	157639
#	175508
#
# Disc length: 2563 seconds
#
# Revision: 0
# Processed by: cddbd v1.5.1PL0 Copyright (c) Steve Scherf et al.
# Submitted via: audiograbber 1.82.02
#
DISCID=a00a010d
DTITLE=Túlio and Tiago - Aparpa
DYEAR=2004
DGENRE=SERTANEJA
TTITLE0=Mas Você Não Liga
TTITLE1=Do Brasil à Argentina
TTITLE2=Esse Amor Que Me Mata
TTITLE3=Sei Não
TTITLE4=Tadim Tadim
TTITLE5=Mensagem do Celular
TTITLE6=Com Tudo Menos Comigo
TTITLE7=Tá Combinado Assim
TTITLE8=Aparpa
TTITLE9=Bem Aos Olhos da Lua
TTITLE10=Ainda Te Amo
TTITLE11=Mande a Solidão Pra Outro Lugar
TTITLE12=Presente Ideal
EXTD=
EXTT0=
EXTT1=
EXTT2=
EXTT3=
EXTT4=
EXTT5=
EXTT6=
EXTT7=
EXTT8=
EXTT9=
EXTT10=
EXTT11=
EXTT12=
PLAYORDER=
